<?xml version="1.0" encoding="utf-8"?>
<!-- Generator: Adobe Illustrator 18.1.1, SVG Export Plug-In . SVG Version: 6.00 Build 0)  -->
<svg version="1.1" id="Camada_1" xmlns="http://www.w3.org/2000/svg" xmlns:xlink="http://www.w3.org/1999/xlink" x="0px" y="0px"
	 viewBox="0 109.9 960 339.9" enable-background="new 0 109.9 960 339.9" xml:space="preserve">
<g>
	<path fill="#FFFFFF" d="M43.9,192.8c-7.7,14.3-14.9,25-21,32.1c-6,7.2-11.2,10.6-14.9,10.6c-5.2,0-8-6-8-18.1
		c0-11.8,1.7-22.4,5.2-31.9s8-17.8,14.1-25c6-7.2,13.2-13.5,21.5-18.7s17.5-9.2,27.3-12.6c10-3.4,20.4-5.7,31.6-7.2
		c11.2-1.4,22.4-2.3,34.2-2.3c13.5,0,27.3,0.9,41,2.9c13.8,2,27,4.9,39.6,8.3c12.6,3.4,24.4,8,35.3,12.9
		c10.9,5.2,20.4,10.6,28.7,16.9c8,6.3,14.3,12.9,19.2,20.1c4.6,7.2,6.9,14.6,6.9,22.4c0,9.2-2,18.4-6,27.6
		c-4,8.9-10.3,17.2-18.9,24.4c-8.6,7.2-19.5,13.2-33,18.1c-13.5,4.6-29.6,7.2-48.2,7.5c11.8,0,22.4,2,31.3,5.7
		c8.9,3.7,16.4,9.2,22.4,15.8c6,6.6,10.6,14.3,13.5,23.5s4.6,18.4,4.6,27.8c0,7.5-1.1,14.9-3.2,22.7c-2,7.7-5.2,15.2-9.2,22.1
		c-4,7.2-9.2,13.8-15.2,20.1c-6,6.3-13.2,11.5-21.5,16.4c-8.3,4.6-17.5,8.3-27.8,10.9s-21.8,4-34.2,4c-7.7,0-16.1-0.6-24.7-1.4
		s-17.5-2.3-26.1-3.7c-8.9-1.7-17.5-3.4-26.1-5.7c-8.6-2.3-16.6-4.6-24.1-7.2c-3.4-0.9-6.3-2-8.9-3.4c-2.6-1.4-4-4.3-4-8.3
		c0-20.1,0.6-40.8,1.4-62c1.1-21.2,3.2-42.2,6.3-62.9c3.2-20.7,7.5-38.7,12.6-54.2c5.2-15.2,12.9-30.1,22.7-44.8
		c8.6-6,16.4-8.9,23.2-8.9c8.9,0,16.1,4.9,22.1,14.9c-5.5,7.5-10.3,16.1-14.1,25.3c-4,9.2-6.9,17.5-8.9,24.7c-2,7.2-4,16.1-5.5,26.7
		c-1.7,10.6-2.9,21-4,31c-0.6,5.7-1.1,12.1-1.4,19.2c-0.3,6.9-0.9,13.8-1.1,20.7s-0.6,13.5-0.9,20.1s-0.3,12.9-0.3,19.2
		c0,0.9,0,2.3,0,4s0.3,3.4,0.6,5.5c0.3,1.7,0.6,3.4,1.1,5.2c0.6,1.4,1.1,2.6,2.3,3.4c7.5,2.6,15.2,4.6,23.5,6.3
		c8.3,1.7,16.9,2.6,25.3,2.6c10.3,0,20.1-1.1,29.8-3.7c9.5-2.6,18.1-6.6,25.5-12.1c7.5-5.5,13.5-12.3,18.1-21
		c4.6-8.6,6.9-19.5,6.9-32.7c0-7.2-1.4-12.9-4-17.8c-2.6-4.6-6-8.6-10.3-11.8c-4.3-3.2-9.2-5.7-14.6-7.7c-5.5-2-11.2-3.7-16.6-5.2
		c-5.7-1.4-11.2-3.2-16.6-4.6c-5.5-1.4-10.3-3.4-14.6-5.5c-4.3-2.3-7.7-5.2-10.3-8.3c-2.6-3.4-4-7.7-4-13.2c0-2.6,0.3-4.6,0.6-6.6
		c0.3-1.7,1.1-3.4,2.3-4.6c1.1-1.1,2.9-2,5.2-2.6s5.2-0.9,9.2-0.9c5.2,0,9.8,0.3,14.1,0.6c4.3,0.3,8.9,0.6,13.8,0.6
		c11.5,0,22.1-1.4,31.3-4.3c9.2-2.9,17.2-6.6,23.8-11.5s11.5-10.3,15.2-16.9c3.4-6.3,5.5-13.5,5.5-20.7c0-4.9-1.4-9.2-4-13.2
		c-2.9-4-6.6-7.7-11.8-10.9c-4.9-3.2-10.9-6-17.5-8.3s-14.1-4.3-22.1-6s-16.4-2.9-25-3.7c-8.9-0.9-17.8-1.1-26.7-1.1
		c-14.6,0-25.8,0.6-33.9,1.4c-11.2,1.1-21.2,3.2-31,5.7s-18.1,6-25.5,10C53.4,183,47.6,187.6,43.9,192.8z"/>
	<path fill="#FFFFFF" d="M352.1,433c-11.2,0-21-2-29.6-6.3c-8.3-4-15.5-9.8-21-16.6c-5.7-7.2-9.8-15.2-12.6-24.4
		c-2.9-9.2-4.3-18.9-4.3-29c0-6.6,1.1-14.6,3.7-23.8c2.6-9.2,5.2-17.2,7.7-24.4c2.6-7.2,6-13.8,10-20.4s8.9-12.1,14.3-17.2
		c5.5-4.9,11.5-8.9,18.4-11.8s14.3-4.3,22.4-4.3c6.6,0,12.9,1.1,18.7,3.2c5.7,2.3,10.9,5.2,15.2,9.2s7.7,8.6,10,14.1
		s3.7,11.8,3.7,18.7c0,7.2-2.6,15.5-7.2,24.4s-10.6,16.9-16.9,23.2c-6.6,6.6-14.3,12.3-23.2,17.2c-8.9,5.2-18.7,8.9-29.3,11.8
		c1.7,3.2,3.7,5.7,5.5,8c1.7,2,3.4,3.7,5.5,4.9c1.7,1.1,3.7,2,5.7,2.6s4,0.6,6.3,0.6c7.2,0,14.9-1.4,22.7-4.3
		c8-2.9,15.8-6.3,23.2-10.6c7.5-4.3,14.6-8.9,21.5-13.8c6.6-4.9,12.3-9.8,17.2-14.1l23.2,23.5c-10.6,11.2-21.8,21.2-33.6,29.8
		c-5.2,3.7-10.6,7.5-16.6,10.9s-12.3,6.9-18.7,9.5c-6.6,2.9-13.2,4.9-20.4,6.6C366.5,432.1,359.3,433,352.1,433z M328,346.9
		c4.3,0,9.2-1.1,14.1-3.2c5.2-2.3,9.8-4.9,14.3-8.3c4.3-3.4,8.6-8,12.9-13.8c4.3-5.7,6.3-10.6,6.3-14.3c0-5.2-0.9-9.8-2.9-12.9
		c-2-3.4-4.3-5.2-7.5-5.2c-5.2,0-9.8,0.9-13.2,2.9c-3.7,2-6.9,4.3-9.2,7.2c-2.6,2.9-4.6,6.3-6,10.3c-1.4,3.7-3.2,8.6-5.2,14.1
		c-2,5.7-3.2,10.3-3.4,14.1C328.3,341.4,328,344.3,328,346.9z"/>
	<path fill="#FFFFFF" d="M488.2,433c-11.2,0-21-2-29.6-6.3c-8.3-4-15.5-9.8-21-16.6c-5.7-7.2-9.8-15.2-12.6-24.4
		c-2.9-9.2-4.3-18.9-4.3-29c0-6.6,1.1-14.6,3.7-23.8c2.6-9.2,5.2-17.2,7.7-24.4s6-13.8,10-20.4s8.9-12.1,14.3-17.2
		c5.5-4.9,11.5-8.9,18.4-11.8s14.3-4.3,22.4-4.3c6.6,0,12.9,1.1,18.7,3.2c5.7,2.3,10.9,5.2,15.2,9.2s7.7,8.6,10,14.1
		s3.7,11.8,3.7,18.7c0,7.2-2.6,15.5-7.2,24.4c-4.6,8.9-10.6,16.9-16.9,23.2c-6.6,6.6-14.3,12.3-23.2,17.2
		c-8.9,5.2-18.7,8.9-29.3,11.8c1.7,3.2,3.7,5.7,5.5,8c1.7,2,3.4,3.7,5.5,4.9c1.7,1.1,3.7,2,5.7,2.6s4,0.6,6.3,0.6
		c7.2,0,14.9-1.4,22.7-4.3c8-2.9,15.8-6.3,23.2-10.6s14.6-8.9,21.5-13.8c6.6-4.9,12.3-9.8,17.2-14.1l23.2,23.5
		c-10.6,11.2-21.8,21.2-33.6,29.8c-5.2,3.7-10.6,7.5-16.6,10.9s-12.3,6.9-18.7,9.5c-6.6,2.9-13.2,4.9-20.4,6.6
		C502.5,432.1,495.4,433,488.2,433z M464.1,346.9c4.3,0,9.2-1.1,14.1-3.2c5.2-2.3,9.8-4.9,14.3-8.3c4.3-3.4,8.6-8,12.9-13.8
		c4.3-5.7,6.3-10.6,6.3-14.3c0-5.2-0.9-9.8-2.9-12.9c-2-3.4-4.3-5.2-7.5-5.2c-5.2,0-9.8,0.9-13.2,2.9c-3.7,2-6.9,4.3-9.2,7.2
		c-2.6,2.9-4.6,6.3-6,10.3c-1.4,3.7-3.2,8.6-5.2,14.1c-2,5.7-3.2,10.3-3.4,14.1C464.1,341.4,464.1,344.3,464.1,346.9z"/>
	<path fill="#FFFFFF" d="M713.5,392.5c-11.5,6.6-21.8,12.6-31,17.8c-8.9,5.2-16.9,9.2-24.1,12.6c-7.2,3.4-13.2,6-18.7,7.5
		c-5.5,1.7-10.3,2.6-14.9,2.6c-9.2,0-17.2-2.9-24.1-8.3s-12.6-13.5-17.5-23.8c-4.6-10.3-8-23-10.6-37.9c-2.3-14.9-3.4-31.6-3.4-49.9
		c0-7.2,0.3-14.9,0.9-23s1.4-16.4,2.6-24.4c-3.7-0.6-6.3-1.1-8.3-1.4c-2-0.6-4-0.9-6.3-1.4c-2.3-0.6-5.2-0.9-8.6-1.4
		c-3.4-0.6-8.3-1.1-14.9-2c-2.9-0.3-5.2-1.1-6.6-2.3c-1.4-1.1-2.6-2.6-3.4-4c-0.9-1.4-1.1-3.2-1.1-4.9s-0.3-3.2-0.3-4.3
		c0-2,1.1-3.4,3.4-4.3c2.3-0.9,5.5-1.7,9.2-2.3s7.7-0.9,12.1-0.9s8.6,0,12.6,0s7.7,0.3,10.9,0.3s5.5,0,6.6-0.3
		c3.2-16.1,7.5-31.9,12.3-47.1s10.6-28.7,16.6-40.5c6.3-11.8,12.9-21.2,20.4-28.4c7.2-7.2,14.9-10.6,23-10.6c5.2,0,9.8,1.4,14.1,4.3
		s8,6.6,10.9,11.5c2.9,4.9,5.5,10.3,6.9,16.9c1.7,6.3,2.3,13.2,2.3,20.1c0,5.7-0.9,11.8-2.6,18.4c-1.7,6.3-4,12.9-6.9,19.5
		s-6.3,13.5-10.3,20.1c-4,6.9-8,13.5-12.3,20.4c1.1-0.3,2.9-0.6,5.5-0.3s5.5,0.3,8.6,0.6c3.4,0,6.9,0.3,10.6,0.3s7.5,0.3,11.2,0.3
		s6.9,0.3,10,0.3s5.7,0.3,7.7,0.3c2.3,0,4,1.4,5.2,4c1.1,2.6,1.7,5.7,1.7,9.8c0,4.6-1.1,8-3.7,10.9c-2.3,2.9-5.2,4.3-8,4.3H632
		c-3.4,4.9-7.2,9.5-10.6,14.1c-3.4,4.6-6.9,8.9-9.8,12.6c-0.6,7.5-0.9,14.9-1.1,22.1c0,3.2-0.3,6.3-0.3,9.8c0,3.4-0.3,6.6-0.3,9.8
		s-0.3,6.3-0.3,9.5c0,2.9,0,5.7,0,8.3c0,6.6,0.6,12.1,1.7,16.4c1.1,4.3,2.9,8,5.2,10.9s5.2,4.9,8.3,6c3.4,1.1,6.9,2,11.2,2
		c2.6,0,5.7-0.6,9.5-1.7s8-2.9,12.3-4.9c4.6-2,9.2-4.6,14.3-7.5c4.9-2.9,10-6,14.9-9.5s9.5-6.9,14.1-10.9c4.6-3.7,8.6-7.7,12.1-11.8
		v45.9h0.3V392.5z M655.8,164.1c0-1.4,0-2.9-0.3-4.3c-0.3-1.7-0.6-3.2-1.1-4.6c-0.6-1.4-1.4-2.6-2.9-3.7c-1.1-0.9-3.2-1.4-5.5-1.4
		c-3.2,0-6.3,2.9-9.5,8.3c-3.2,5.5-6.3,12.6-9.2,21c-2.9,8.6-5.7,17.8-8.3,28.1s-4.9,20.1-7.2,29.8c1.7,0.3,3.7,0.3,5.5,0.6
		c1.7,0,3.7,0.3,5.7,0.6c3.7-6,7.5-12.6,11.2-19.8c4-7.2,7.5-14.1,10.6-21c3.2-6.9,5.7-13.2,7.7-19.2
		C654.6,173,655.8,168.1,655.8,164.1z"/>
	<path fill="#FFFFFF" d="M760,433c-11.2,0-21-2-29.6-6.3c-8.3-4-15.5-9.8-21-16.6c-5.7-7.2-9.8-15.2-12.6-24.4
		c-2.9-9.2-4.3-18.9-4.3-29c0-6.6,1.1-14.6,3.7-23.8c2.6-9.2,5.2-17.2,7.7-24.4c2.6-7.2,6-13.8,10-20.4s8.9-12.1,14.3-17.2
		c5.5-4.9,11.5-8.9,18.4-11.8s14.3-4.3,22.4-4.3c6.6,0,12.9,1.1,18.7,3.2c5.7,2.3,10.9,5.2,15.2,9.2s7.7,8.6,10,14.1
		s3.7,11.8,3.7,18.7c0,7.2-2.6,15.5-7.2,24.4s-10.6,16.9-16.9,23.2c-6.6,6.6-14.3,12.3-23.2,17.2c-8.9,5.2-18.7,8.9-29.3,11.8
		c1.7,3.2,3.7,5.7,5.5,8c1.7,2,3.4,3.7,5.5,4.9c1.7,1.1,3.7,2,5.7,2.6s4,0.6,6.3,0.6c7.2,0,14.9-1.4,22.7-4.3
		c8-2.9,15.8-6.3,23.2-10.6s14.6-8.9,21.5-13.8c6.6-4.9,12.3-9.8,17.2-14.1l23.2,23.5c-10.6,11.2-21.8,21.2-33.6,29.8
		c-5.2,3.7-10.6,7.5-16.6,10.9s-12.3,6.9-18.7,9.5c-6.6,2.9-13.2,4.9-20.4,6.6C774.3,432.1,767.1,433,760,433z M735.9,346.9
		c4.3,0,9.2-1.1,14.1-3.2c5.2-2.3,9.8-4.9,14.3-8.3c4.3-3.4,8.6-8,12.9-13.8c4.3-5.7,6.3-10.6,6.3-14.3c0-5.2-0.9-9.8-2.9-12.9
		c-2-3.4-4.3-5.2-7.5-5.2c-5.2,0-9.8,0.9-13.2,2.9c-3.7,2-6.9,4.3-9.2,7.2c-2.6,2.9-4.6,6.3-6,10.3c-1.4,3.7-3.2,8.6-5.2,14.1
		c-2,5.7-3.2,10.3-3.4,14.1C736.1,341.4,735.9,344.3,735.9,346.9z"/>
	<path fill="#FFFFFF" d="M932.4,353.5c-8.9-1.1-12.9-12.1-12.9-12.1c-2.6-7.2-3.2-12.9-4.3-20.4h-2.9l-32.1,89.8
		c-1.7,4.6-3.2,8.6-4.9,11.8c-1.4,3.2-3.2,5.5-4.6,7.5c-1.4,2-3.2,3.2-5.2,4c-1.7,0.9-3.7,1.1-6,1.1c-4.9,0-8.9-1.1-11.8-3.2
		c-2.9-2-5.5-4.9-6.9-8.6c-1.7-3.4-2.6-7.5-3.2-12.1s-0.9-9.2-0.9-14.1c0-5.2,0.3-11.5,0.9-18.4c0.6-6.9,1.4-14.3,2.3-22.4
		c1.1-7.7,2.3-15.8,3.7-23.8s3.2-16.6,5.5-25.8c2.3-9.2,4-16.9,5.5-23c1.4-6,3.2-11.2,4.6-15.2c0.9-2.6,2-4.9,2.9-6.3s2-2.9,3.4-3.7
		c1.1-0.9,2.9-1.4,4.6-1.7s4.3-0.6,6.9-0.6c3.2,0,5.5,0.3,7.2,0.6s3.2,1.1,4,2.3c0.9,1.1,1.4,2.9,1.4,4.9c0.3,2.3,0.3,5.2,0.3,8.9
		c0,4.3-0.3,10.6-0.9,18.9c-0.6,8-0.9,15.2-0.6,21.5h2c2.3-4.9,5.5-11.2,8.9-18.9c3.7-7.7,7.5-14.3,11.5-19.5s8.6-9.5,13.5-13.2
		c5.2-3.4,10.9-5.5,17.5-5.5c1.4,0,2.9,0,4,0.6c3.2,0.9,6,2,8.3,4c1.7,1.4,2.9,3.2,4,5.5c0.9,2,1.4,4.6,1.4,7.2c0,2-0.3,4.9-0.9,8.6
		c-0.6,3.7-1.4,8.3-2.9,14.3c-1.4,6-2,10.9-2.9,14.6c-0.9,3.4-3.4,14.3-3.4,16.4C949.1,343.7,945.9,355.2,932.4,353.5z"/>
</g>
</svg>
